<svg width="112" height="89" viewBox="0 0 112 89" fill="none" xmlns="http://www.w3.org/2000/svg">
<path d="M112 8.9C112 13.8153 107.989 17.8 103.04 17.8H8.96C4.01153 17.8 0 13.8153 0 8.9C0 3.98467 4.01153 0 8.96 0H103.04C107.989 0 112 3.98467 112 8.9ZM112 44.5C112 39.5847 107.989 35.6 103.04 35.6H8.96C4.01153 35.6 0 39.5847 0 44.5C0 49.4155 4.01153 53.4 8.96 53.4H103.04C107.989 53.4 112 49.4155 112 44.5ZM112 80.1C112 75.1845 107.989 71.2 103.04 71.2H8.96C4.01153 71.2 0 75.1845 0 80.1C0 85.0155 4.01153 89 8.96 89H103.04C107.989 89 112 85.0155 112 80.1Z" fill="#F5F5F5"/>
</svg>
