<svg width="99" height="117" viewBox="0 0 99 117" fill="none" xmlns="http://www.w3.org/2000/svg">
<g filter="url(#filter0_d)">
<path d="M59.9635 108.484C67.679 108.484 73.9674 107.451 78.8287 105.384C83.796 103.318 88.1294 100.632 91.8284 97.3255V81.9829C89.5039 83.636 86.8611 85.4441 83.9017 87.4071C81.0484 89.3702 77.6664 91.0747 73.7556 92.5213C69.9509 94.0711 65.3532 94.8459 59.9635 94.8459C52.0368 94.8459 44.9548 93.0896 38.7195 89.5767C32.4838 86.0638 27.5686 81.2079 23.9757 75.0089C20.3817 68.9132 18.5858 61.9906 18.5858 54.2419C18.5858 46.4928 20.3817 39.5708 23.9757 33.4751C27.5686 27.3786 32.4838 22.5229 38.7195 18.907C44.9548 15.3936 52.0368 13.638 59.9635 13.638C68.102 13.638 75.0239 14.9297 80.7318 17.5118C86.5445 20.1986 91.3006 22.9361 94.9996 25.7255V11.7777C91.3006 8.57515 86.4384 5.78582 80.4136 3.40866C74.4952 1.13621 67.679 0 59.9635 0C51.9311 0 44.5322 1.39411 37.7678 4.18454C31.0037 7.07745 25.0849 11.003 20.0119 15.9623C14.9388 20.9216 10.9761 26.6556 8.12165 33.1645C5.37425 39.7767 4 46.8028 4 54.2419C4 61.6806 5.37425 68.6546 8.12165 75.1639C10.9761 81.7761 14.9388 87.5622 20.0119 92.5213C25.0849 97.4805 31.0037 101.355 37.7678 104.144C44.5322 107.038 51.9311 108.484 59.9635 108.484Z" fill="#514E4E"/>
<path d="M56.9171 38.4136L51.1143 38.4038L51.0676 65.3453L56.8705 65.3551L56.9171 38.4136Z" fill="#514E4E"/>
<path d="M76.2185 63.4621L76.2285 57.689L49.1483 57.6434L49.1383 63.4166L76.2185 63.4621Z" fill="#514E4E"/>
</g>
<defs>
<filter id="filter0_d" x="0" y="0" width="98.9996" height="116.484" filterUnits="userSpaceOnUse" color-interpolation-filters="sRGB">
<feFlood flood-opacity="0" result="BackgroundImageFix"/>
<feColorMatrix in="SourceAlpha" type="matrix" values="0 0 0 0 0 0 0 0 0 0 0 0 0 0 0 0 0 0 127 0"/>
<feOffset dy="4"/>
<feGaussianBlur stdDeviation="2"/>
<feColorMatrix type="matrix" values="0 0 0 0 0 0 0 0 0 0 0 0 0 0 0 0 0 0 0.25 0"/>
<feBlend mode="normal" in2="BackgroundImageFix" result="effect1_dropShadow"/>
<feBlend mode="normal" in="SourceGraphic" in2="effect1_dropShadow" result="shape"/>
</filter>
</defs>
</svg>
