<svg width="70" height="35" viewBox="0 0 70 35" fill="none" xmlns="http://www.w3.org/2000/svg">
<path d="M52.4912 35H17.5058L17.5 33.1829C17.5 29.5108 17.7917 27.3904 22.1317 26.3871C27.0433 25.2525 31.885 24.2404 29.5546 19.9442C22.6538 7.21875 27.5887 0 34.9971 0C42.2625 0 47.3229 6.95042 40.4396 19.9471C38.1792 24.2171 42.8488 25.2321 47.8625 26.39C52.2083 27.3933 52.4971 29.5167 52.4971 33.1946L52.4912 35ZM66.5233 28.5425C62.7608 27.6733 59.2608 26.9121 60.9554 23.7096C66.115 13.9621 62.3233 8.75 56.8721 8.75C53.1825 8.75 50.3154 11.1329 50.3154 15.5283C50.3154 26.9121 56.9304 20.6908 56.8662 35H69.9942L70 33.6496C70 30.8904 69.7842 29.295 66.5233 28.5425ZM0.00583333 35H13.1337C13.0725 20.6908 19.6846 26.915 19.6846 15.5283C19.6846 11.1329 16.8175 8.75 13.1279 8.75C7.67667 8.75 3.885 13.9621 9.0475 23.7096C10.7421 26.915 7.24208 27.6733 3.47958 28.5425C0.215833 29.295 0 30.8904 0 33.6496L0.00583333 35Z" fill="#514E4E"/>
</svg>
