<svg width="45" height="45" viewBox="0 0 45 45" fill="none" xmlns="http://www.w3.org/2000/svg">
<path d="M22.5 3.75C32.8387 3.75 41.25 12.1613 41.25 22.5C41.25 32.8387 32.8387 41.25 22.5 41.25C12.1613 41.25 3.75 32.8387 3.75 22.5C3.75 12.1613 12.1613 3.75 22.5 3.75ZM22.5 0C10.0744 0 0 10.0744 0 22.5C0 34.9256 10.0744 45 22.5 45C34.9256 45 45 34.9256 45 22.5C45 10.0744 34.9256 0 22.5 0ZM24.8438 31.875C24.8438 33.1688 23.7956 34.2188 22.5 34.2188C21.2081 34.2188 20.1562 33.1688 20.1562 31.875C20.1562 30.5812 21.2081 29.5312 22.5 29.5312C23.7956 29.5312 24.8438 30.5812 24.8438 31.875ZM27.4556 13.1287C26.3156 11.9738 24.615 11.3381 22.6725 11.3381C18.585 11.3381 15.9412 14.2444 15.9412 18.7444H19.7119C19.7119 15.9581 21.2662 14.97 22.5956 14.97C23.7844 14.97 25.0462 15.7594 25.1531 17.2687C25.2694 18.8569 24.4219 19.6631 23.3494 20.6831C20.7019 23.2013 20.6531 24.42 20.6644 27.1856H24.4237C24.3994 25.9406 24.48 24.93 26.1769 23.1019C27.4463 21.7331 29.025 20.0306 29.0569 17.4356C29.0775 15.7031 28.5244 14.2125 27.4556 13.1287Z" fill="#514E4E"/>
</svg>
