<svg width="25" height="25" viewBox="0 0 25 25" fill="none" xmlns="http://www.w3.org/2000/svg">
<path d="M12.5 2.08333C18.2437 2.08333 22.9167 6.75625 22.9167 12.5C22.9167 18.2437 18.2437 22.9167 12.5 22.9167C6.75625 22.9167 2.08333 18.2437 2.08333 12.5C2.08333 6.75625 6.75625 2.08333 12.5 2.08333ZM12.5 0C5.59688 0 0 5.59688 0 12.5C0 19.4031 5.59688 25 12.5 25C19.4031 25 25 19.4031 25 12.5C25 5.59688 19.4031 0 12.5 0ZM13.5417 12.5V6.25H11.4583V14.5833H18.75V12.5H13.5417Z" fill="#649F71"/>
</svg>
