<svg width="386" height="111" viewBox="0 0 386 111" fill="none" xmlns="http://www.w3.org/2000/svg">
<g filter="url(#filter0_d)">
<path d="M13.3645 2.20703V43.7015H70.0893V2.20703H83.4538V100.793H70.0893V56.2087H13.3645V100.793H0V2.20703H13.3645ZM145.97 25.75C153.493 25.75 160.176 27.5157 166.016 31.0471C171.858 34.5786 176.411 39.2872 179.678 45.1729C183.043 51.0587 184.727 57.484 184.727 64.4492C184.727 71.4137 183.043 77.8383 179.678 83.724C176.411 89.5125 171.858 94.1719 166.016 97.7033C160.176 101.235 153.493 103 145.97 103C138.446 103 131.764 101.235 125.923 97.7033C120.082 94.1719 115.479 89.5125 112.114 83.724C108.846 77.8383 107.213 71.4137 107.213 64.4492C107.213 57.484 108.846 51.0587 112.114 45.1729C115.479 39.2872 120.082 34.5786 125.923 31.0471C131.764 27.5157 138.446 25.75 145.97 25.75ZM145.97 37.5215C140.723 37.5215 136.12 38.7968 132.16 41.3472C128.2 43.7996 125.131 47.0859 122.953 51.2059C120.874 55.2277 119.835 59.6421 119.835 64.4492C119.835 69.1577 120.874 73.5713 122.953 77.6918C125.131 81.714 128.2 84.9995 132.16 87.5506C136.12 90.0022 140.723 91.2285 145.97 91.2285C151.316 91.2285 155.919 90.0022 159.78 87.5506C163.739 84.9995 166.759 81.714 168.838 77.6918C171.016 73.5713 172.105 69.1577 172.105 64.4492C172.105 59.6421 171.016 55.2277 168.838 51.2059C166.759 47.0859 163.739 43.7996 159.78 41.3472C155.919 38.7968 151.316 37.5215 145.97 37.5215Z" fill="white"/>
<path d="M339.243 25.75C346.767 25.75 353.449 27.5157 359.291 31.0472C365.131 34.5786 369.684 39.2872 372.951 45.1729C376.318 51.0587 378 57.484 378 64.4492C378 71.4137 376.318 77.8383 372.951 83.7241C369.684 89.5125 365.131 94.1719 359.291 97.7033C353.449 101.235 346.767 103 339.243 103C331.719 103 325.037 101.235 319.197 97.7033C313.356 94.1719 308.752 89.5125 305.387 83.7241C302.12 77.8383 300.486 71.4137 300.486 64.4492C300.486 57.484 302.12 51.0587 305.387 45.1729C308.752 39.2872 313.356 34.5786 319.197 31.0472C325.037 27.5157 331.719 25.75 339.243 25.75ZM339.243 37.5215C333.997 37.5215 329.393 38.7968 325.433 41.3473C321.474 43.7996 318.405 47.0859 316.226 51.2059C314.148 55.2278 313.108 59.6421 313.108 64.4492C313.108 69.1578 314.148 73.5713 316.226 77.6918C318.405 81.714 321.474 84.9996 325.433 87.5506C329.393 90.0022 333.997 91.2285 339.243 91.2285C344.59 91.2285 349.192 90.0022 353.053 87.5506C357.013 84.9996 360.033 81.714 362.112 77.6918C364.289 73.5713 365.378 69.1578 365.378 64.4492C365.378 59.6421 364.289 55.2278 362.112 51.2059C360.033 47.0859 357.013 43.7996 353.053 41.3473C349.192 38.7968 344.59 37.5215 339.243 37.5215Z" fill="white"/>
<path d="M252.82 103C260.047 103 265.937 102.019 270.491 100.057C275.143 98.0952 279.202 95.5447 282.667 92.4057V77.8385C280.489 79.4081 278.014 81.1247 275.242 82.9885C272.57 84.8524 269.402 86.471 265.739 87.8443C262.175 89.3157 257.869 90.0514 252.82 90.0514C245.396 90.0514 238.762 88.3838 232.922 85.0486C227.081 81.7133 222.477 77.1028 219.112 71.217C215.745 65.4294 214.063 58.857 214.063 51.4998C214.063 44.1426 215.745 37.5704 219.112 31.783C222.477 25.9946 227.081 21.3843 232.922 17.9512C238.762 14.6155 245.396 12.9486 252.82 12.9486C260.443 12.9486 266.927 14.1749 272.273 16.6265C277.718 19.1776 282.173 21.7767 285.637 24.425V11.1824C282.173 8.14169 277.618 5.49335 271.975 3.23637C266.431 1.07879 260.047 1.52588e-05 252.82 1.52588e-05C245.296 1.52588e-05 238.366 1.32365 232.03 3.97301C225.695 6.71969 220.151 10.4468 215.399 15.1554C210.647 19.864 206.936 25.3082 204.262 31.4879C201.689 37.766 200.401 44.437 200.401 51.4998C200.401 58.5627 201.689 65.1842 204.262 71.3642C206.936 77.6424 210.647 83.1357 215.399 87.8443C220.151 92.5529 225.695 96.2315 232.03 98.88C238.366 101.627 245.296 103 252.82 103Z" fill="white"/>
<rect width="5.43536" height="25.5796" transform="matrix(0.999999 0.00170511 -0.00170812 0.999999 244.531 36.4609)" fill="white"/>
<rect width="5.48135" height="25.3651" transform="matrix(-0.00170817 0.999999 -0.999999 -0.00170516 268.053 54.7725)" fill="white"/>
</g>
<defs>
<filter id="filter0_d" x="0" y="0" width="386" height="111" filterUnits="userSpaceOnUse" color-interpolation-filters="sRGB">
<feFlood flood-opacity="0" result="BackgroundImageFix"/>
<feColorMatrix in="SourceAlpha" type="matrix" values="0 0 0 0 0 0 0 0 0 0 0 0 0 0 0 0 0 0 127 0"/>
<feOffset dx="4" dy="4"/>
<feGaussianBlur stdDeviation="2"/>
<feColorMatrix type="matrix" values="0 0 0 0 0 0 0 0 0 0 0 0 0 0 0 0 0 0 0.25 0"/>
<feBlend mode="normal" in2="BackgroundImageFix" result="effect1_dropShadow"/>
<feBlend mode="normal" in="SourceGraphic" in2="effect1_dropShadow" result="shape"/>
</filter>
</defs>
</svg>
