<svg width="25" height="13" viewBox="0 0 25 13" fill="none" xmlns="http://www.w3.org/2000/svg">
<path d="M18.7469 13H6.25208L6.25 12.3251C6.25 10.9612 6.35417 10.1736 7.90417 9.80092C9.65833 9.3795 11.3875 9.00358 10.5552 7.40783C8.09062 2.68125 9.85312 0 12.499 0C15.0937 0 16.901 2.58158 14.4427 7.40892C13.6354 8.99492 15.3031 9.37192 17.0938 9.802C18.6458 10.1747 18.749 10.9633 18.749 12.3294L18.7469 13ZM23.7583 10.6015C22.4146 10.2787 21.1646 9.99592 21.7698 8.80642C23.6125 5.18592 22.2583 3.25 20.3115 3.25C18.9937 3.25 17.9698 4.13508 17.9698 5.76767C17.9698 9.99592 20.3323 7.68517 20.3094 13H24.9979L25 12.4984C25 11.4736 24.9229 10.881 23.7583 10.6015ZM0.00208333 13H4.69062C4.66875 7.68517 7.03021 9.997 7.03021 5.76767C7.03021 4.13508 6.00625 3.25 4.68854 3.25C2.74167 3.25 1.3875 5.18592 3.23125 8.80642C3.83646 9.997 2.58646 10.2787 1.24271 10.6015C0.0770833 10.881 0 11.4736 0 12.4984L0.00208333 13Z" fill="#649F71"/>
</svg>
