<svg width="25" height="25" viewBox="0 0 25 25" fill="none" xmlns="http://www.w3.org/2000/svg">
<path d="M12.5 2.08333C18.2437 2.08333 22.9167 6.75625 22.9167 12.5C22.9167 18.2437 18.2437 22.9167 12.5 22.9167C6.75625 22.9167 2.08333 18.2437 2.08333 12.5C2.08333 6.75625 6.75625 2.08333 12.5 2.08333ZM12.5 0C5.59687 0 0 5.59687 0 12.5C0 19.4031 5.59687 25 12.5 25C19.4031 25 25 19.4031 25 12.5C25 5.59687 19.4031 0 12.5 0ZM13.8021 17.7083C13.8021 18.4271 13.2198 19.0104 12.5 19.0104C11.7823 19.0104 11.1979 18.4271 11.1979 17.7083C11.1979 16.9896 11.7823 16.4062 12.5 16.4062C13.2198 16.4062 13.8021 16.9896 13.8021 17.7083ZM15.2531 7.29375C14.6198 6.65208 13.675 6.29896 12.5958 6.29896C10.325 6.29896 8.85625 7.91354 8.85625 10.4135H10.951C10.951 8.86562 11.8146 8.31667 12.5531 8.31667C13.2135 8.31667 13.9146 8.75521 13.974 9.59375C14.0385 10.476 13.5677 10.924 12.9719 11.4906C11.501 12.8896 11.474 13.5667 11.4802 15.1031H13.5687C13.5552 14.4115 13.6 13.85 14.5427 12.8344C15.2479 12.074 16.125 11.1281 16.1427 9.68646C16.1542 8.72396 15.8469 7.89583 15.2531 7.29375Z" fill="#649F71"/>
</svg>
