<svg width="131" height="116" viewBox="0 0 131 116" fill="none" xmlns="http://www.w3.org/2000/svg">
<path d="M49.7691 112C54.1685 116.419 61.3163 116.435 65.7355 112.036V112.036C70.1594 107.633 70.1713 100.476 65.7622 96.0577L39.0088 69.2502L119.75 69.2502C125.963 69.2502 131 64.2133 131 58V58C131 51.7867 125.963 46.7498 119.75 46.7498L39.0088 46.7498L65.7622 19.9423C70.1713 15.5243 70.1594 8.367 65.7355 3.96376V3.96376C61.3163 -0.434753 54.1684 -0.418722 49.7691 3.99956L4.43077 49.533C-0.231258 54.215 -0.231258 61.785 4.43077 66.467L49.7691 112Z" fill="#F5F5F5"/>
</svg>
