<svg width="81" height="81" viewBox="0 0 81 81" fill="none" xmlns="http://www.w3.org/2000/svg">
<path d="M79.1087 78.2236C81.4616 75.8448 81.4418 72.0094 79.0644 69.6551L48.9282 39.811L78.7422 9.72809C81.0615 7.38785 80.924 3.57562 78.4421 1.4086C76.1716 -0.573753 72.7513 -0.449697 70.6305 1.69193L40.3157 32.3035L9.68173 1.96327C7.55664 -0.14144 4.16387 -0.238685 1.92171 1.74085C-0.54257 3.91648 -0.652415 7.72288 1.6823 10.037L31.8157 39.9047L1.93777 70.0751C-0.400773 72.4365 -0.391505 76.2437 1.95851 78.5938C4.32393 80.9592 8.16161 80.9508 10.5167 78.5751L40.417 48.4122L70.533 78.2658C72.912 80.6241 76.753 80.6052 79.1087 78.2236Z" fill="white"/>
</svg>
