<svg width="84" height="84" viewBox="0 0 84 84" fill="none" xmlns="http://www.w3.org/2000/svg">
<path d="M81.7359 81.346C84.6428 78.4132 84.6208 73.6788 81.6867 70.7732L52.56 41.9287L81.3935 12.8352C84.2994 9.90311 84.2783 5.1705 81.3463 2.26442V2.26442C78.4133 -0.642663 73.6787 -0.620637 70.7729 2.31361L41.9475 31.4213L12.8071 2.56031C9.89268 -0.326154 5.19359 -0.314835 2.29311 2.58564V2.58564C-0.626396 5.50515 -0.615907 10.2418 2.3165 13.1484L31.4475 42.0225L2.56007 71.1926C-0.326307 74.1072 -0.31487 78.8064 2.58566 81.7069V81.7069C5.5052 84.6265 10.2419 84.6161 13.1487 81.6838L42.0488 52.53L71.1651 81.3926C74.0969 84.2989 78.8297 84.278 81.7359 81.346V81.346Z" fill="white"/>
</svg>
